<?xml version="1.0" encoding="utf-8"?>
<!-- Generator: Adobe Illustrator 18.1.0, SVG Export Plug-In . SVG Version: 6.00 Build 0)  -->
<svg version="1.1"
	 id="svg8" xmlns:inkscape="http://www.inkscape.org/namespaces/inkscape" xmlns:rdf="http://www.w3.org/1999/02/22-rdf-syntax-ns#" xmlns:sodipodi="http://sodipodi.sourceforge.net/DTD/sodipodi-0.dtd" xmlns:svg="http://www.w3.org/2000/svg" xmlns:osb="http://www.openswatchbook.org/uri/2009/osb" xmlns:cc="http://creativecommons.org/ns#" xmlns:dc="http://purl.org/dc/elements/1.1/" sodipodi:docname="drawing.svg" inkscape:version="0.92.2 5c3e80d, 2017-08-06"
	 xmlns="http://www.w3.org/2000/svg" xmlns:xlink="http://www.w3.org/1999/xlink" x="0px" y="0px" viewBox="-185 187 128 128"
	 enable-background="new -185 187 128 128" xml:space="preserve">
<sodipodi:namedview  units="px" showgrid="false" inkscape:cy="64.745501" inkscape:cx="34.396358" inkscape:zoom="3.959798" id="base" borderopacity="1.0" inkscape:window-maximized="1" inkscape:window-y="0" inkscape:window-x="0" inkscape:document-units="mm" inkscape:window-width="1600" inkscape:window-height="814" inkscape:pageshadow="2" inkscape:current-layer="layer1" inkscape:pageopacity="0.0">
	</sodipodi:namedview>
<g id="layer1" transform="translate(0,-263.13332)" inkscape:label="Layer 1" inkscape:groupmode="layer">
	<path id="path4939" inkscape:connector-curvature="0" fill="#E6E6E6" stroke="#999999" stroke-width="0.1" d="M-127.6,576.5
		c-24.3-2.6-45.2-19.3-52.9-42.5c-2.2-6.7-3.2-12.5-3.2-19.9s0.9-13.1,3.2-19.9c5.8-17.5,19.2-31.6,36.6-38.5
		c10.9-4.3,23.5-5.4,35.4-3c11.9,2.4,23.1,8.4,31.8,17.1c9.8,9.8,15.9,22.2,17.9,36.2c0.4,3.2,0.4,12.9,0,16.1
		c-2.6,18.3-12.5,34.1-27.6,44.2c-8.2,5.5-17.5,8.9-27.4,10C-117.5,576.8-124,576.9-127.6,576.5L-127.6,576.5z"/>

		<radialGradient id="path6_1_" cx="-160.7391" cy="443.3305" r="56.373" gradientTransform="matrix(1.0037 0 0 -1.0038 40.3341 959.126)" gradientUnits="userSpaceOnUse">
		<stop  offset="0" style="stop-color:#01C0E0"/>
		<stop  offset="1" style="stop-color:#3890FE"/>
	</radialGradient>
	<path id="path6" inkscape:connector-curvature="0" fill="url(#path6_1_)" d="M-127,570.5c-21.9-2.3-40.8-17.5-47.8-38.4
		c-2-6.1-2.8-11.3-2.8-17.9c0-6.6,0.8-11.9,2.8-17.9c5.3-15.9,17.4-28.6,33.1-34.8c9.8-3.9,21.3-4.9,32-2.7
		c10.8,2.2,20.8,7.6,28.7,15.5c8.8,8.8,14.4,20.1,16.2,32.7c0.4,2.9,0.4,11.7,0,14.5c-2.3,16.5-11.3,30.9-24.9,39.9
		c-7.4,4.9-15.8,8-24.8,9C-117.8,570.8-123.7,570.8-127,570.5z"/>
	<path id="path4588" inkscape:connector-curvature="0" opacity="0.5" fill="#FFFFFF" enable-background="new    " d="M-121,469.5
		l-6.4,23.3c-2.4,0.7-4.7,1.9-6.7,3.4l-10.5-5.7l5.7,10.5c-1.5,2-2.6,4.3-3.4,6.7l-23.3,6.4l23.3,6.4c0.7,2.4,1.9,4.7,3.4,6.7
		l-5.7,10.5l10.5-5.7c2,1.5,4.3,2.6,6.7,3.4l6.4,23.3l6.4-23.3c2.4-0.7,4.7-1.9,6.7-3.4l10.5,5.7l-5.7-10.5c1.5-2,2.6-4.3,3.4-6.7
		l23.3-6.4l-23.3-6.4c-0.7-2.4-1.9-4.7-3.4-6.7l5.7-10.5l-10.5,5.7c-2-1.5-4.3-2.6-6.7-3.4L-121,469.5z M-121,497.4
		c9.2,0,16.7,7.5,16.7,16.7c0,9.2-7.5,16.7-16.7,16.7s-16.7-7.5-16.7-16.7C-137.7,504.9-130.2,497.4-121,497.4z"/>
	<g id="g1487" transform="matrix(0.24751535,0.24752303,-0.19266569,0.19267167,13.562745,252.17515)" opacity="0.25">
		<path id="path1483" inkscape:connector-curvature="0" d="M279.4,1030.4l-37.8,0L260.5,849L279.4,1030.4z"/>
		<path id="path1485" inkscape:connector-curvature="0" d="M279.4,1030.4l-37.8,0l18.9,181.4L279.4,1030.4z"/>
	</g>
	<g id="g5928-7-4" transform="matrix(0.24751535,0.24752303,-0.19266569,0.19267167,13.422215,251.89409)">

			<linearGradient id="path5923-0-5_1_" gradientUnits="userSpaceOnUse" x1="700.0789" y1="1556.83" x2="710.0789" y2="1556.83" gradientTransform="matrix(0.9355 -0.9355 -0.7282 -0.7282 718.0259 2727.3103)">
			<stop  offset="0" style="stop-color:#FF7C53"/>
			<stop  offset="0.5" style="stop-color:#F21919"/>
			<stop  offset="0.5" style="stop-color:#DB1414"/>
			<stop  offset="1" style="stop-color:#9B1818"/>
		</linearGradient>
		<path id="path5923-0-5" inkscape:connector-curvature="0" fill="url(#path5923-0-5_1_)" d="M277.1,1029.4l-37.8,0L258.2,848
			L277.1,1029.4z"/>

			<linearGradient id="path5926-8-6_1_" gradientUnits="userSpaceOnUse" x1="603.1182" y1="1432.266" x2="613.1182" y2="1432.266" gradientTransform="matrix(0.9355 -0.9355 -0.7282 -0.7282 718.0259 2727.3103)">
			<stop  offset="0" style="stop-color:#F0F0F0"/>
			<stop  offset="0.5" style="stop-color:#E6E6E6"/>
			<stop  offset="0.5" style="stop-color:#D2D2D2"/>
			<stop  offset="1" style="stop-color:#BEBEBE"/>
		</linearGradient>
		<path id="path5926-8-6" inkscape:connector-curvature="0" fill="url(#path5926-8-6_1_)" d="M277.1,1029.4l-37.8,0l18.9,181.4
			L277.1,1029.4z"/>
	</g>
</g>
</svg>
